HIERARCHY
ROOT Hips
{
  OFFSET -311.755 91.4452 1192.23
  CHANNELS 6 Xposition Yposition Zposition Zrotation Xrotation Yrotation
  JOINT Spine
  {
    OFFSET 0 8 0
    CHANNELS 6 Xposition Yposition Zposition Zrotation Xrotation Yrotation
    JOINT Spine1
    {
      OFFSET 0 8 0
      CHANNELS 6 Xposition Yposition Zposition Zrotation Xrotation Yrotation
      JOINT Spine2
      {
        OFFSET 0 8 0
        CHANNELS 6 Xposition Yposition Zposition Zrotation Xrotation Yrotation
        JOINT Spine3
        {
          OFFSET 0 8 0
          CHANNELS 6 Xposition Yposition Zposition Zrotation Xrotation Yrotation
          JOINT Neck
          {
            OFFSET 0 17 0
            CHANNELS 6 Xposition Yposition Zposition Zrotation Xrotation Yrotation
            JOINT Head
            {
              OFFSET 0 10.8 0
              CHANNELS 6 Xposition Yposition Zposition Zrotation Xrotation Yrotation
              End Site
              {
                OFFSET 0 20.25 0
              }
            }
          }
          JOINT LeftShoulder
          {
            OFFSET 5 17 0
            CHANNELS 6 Xposition Yposition Zposition Zrotation Xrotation Yrotation
            JOINT LeftShoulder2
            {
              OFFSET 6.45 0 0
              CHANNELS 6 Xposition Yposition Zposition Zrotation Xrotation Yrotation
              JOINT LeftArm
              {
                OFFSET 6.45 0 0
                CHANNELS 6 Xposition Yposition Zposition Zrotation Xrotation Yrotation
                JOINT LeftForeArm
                {
                  OFFSET 0 -32.4 -2
                  CHANNELS 6 Xposition Yposition Zposition Zrotation Xrotation Yrotation
                  JOINT LeftHand
                  {
                    OFFSET 0 -25.65 2
                    CHANNELS 6 Xposition Yposition Zposition Zrotation Xrotation Yrotation
                    JOINT LeftHandThumb1
                    {
                      OFFSET -0.5 -1.5 2.65
                      CHANNELS 6 Xposition Yposition Zposition Zrotation Xrotation Yrotation
                      JOINT LeftHandThumb2
                      {
                        OFFSET 0 -3.8 3.7
                        CHANNELS 6 Xposition Yposition Zposition Zrotation Xrotation Yrotation
                        JOINT LeftHandThumb3
                        {
                          OFFSET 0 -3 2.7
                          CHANNELS 6 Xposition Yposition Zposition Zrotation Xrotation Yrotation
                          End Site
                          {
                            OFFSET 0 -2.3 1.8
                          }
                        }
                      }
                    }
                    JOINT LeftHandIndex
                    {
                      OFFSET 0 -1.9 1.6
                      CHANNELS 6 Xposition Yposition Zposition Zrotation Xrotation Yrotation
                      JOINT LeftHandIndex1
                      {
                        OFFSET 0 -8.3 1.9
                        CHANNELS 6 Xposition Yposition Zposition Zrotation Xrotation Yrotation
                        JOINT LeftHandIndex2
                        {
                          OFFSET 0 -4.5 0
                          CHANNELS 6 Xposition Yposition Zposition Zrotation Xrotation Yrotation
                          JOINT LeftHandIndex3
                          {
                            OFFSET 0 -3.4 0
                            CHANNELS 6 Xposition Yposition Zposition Zrotation Xrotation Yrotation
                            End Site
                            {
                              OFFSET 0 -2.6 0
                            }
                          }
                        }
                      }
                    }
                    JOINT LeftHandMiddle
                    {
                      OFFSET -0.25 -2.2 0.4
                      CHANNELS 6 Xposition Yposition Zposition Zrotation Xrotation Yrotation
                      JOINT LeftHandMiddle1
                      {
                        OFFSET 0 -8.3 1
                        CHANNELS 6 Xposition Yposition Zposition Zrotation Xrotation Yrotation
                        JOINT LeftHandMiddle2
                        {
                          OFFSET 0 -4.65 0
                          CHANNELS 6 Xposition Yposition Zposition Zrotation Xrotation Yrotation
                          JOINT LeftHandMiddle3
                          {
                            OFFSET 0 -3.3 0
                            CHANNELS 6 Xposition Yposition Zposition Zrotation Xrotation Yrotation
                            End Site
                            {
                              OFFSET 0 -2.7 0
                            }
                          }
                        }
                      }
                    }
                    JOINT LeftHandRing
                    {
                      OFFSET -0.5 -2.15 -0.8
                      CHANNELS 6 Xposition Yposition Zposition Zrotation Xrotation Yrotation
                      JOINT LeftHandRing1
                      {
                        OFFSET 0 -7.75 -0.2
                        CHANNELS 6 Xposition Yposition Zposition Zrotation Xrotation Yrotation
                        JOINT LeftHandRing2
                        {
                          OFFSET 0 -3.8 0
                          CHANNELS 6 Xposition Yposition Zposition Zrotation Xrotation Yrotation
                          JOINT LeftHandRing3
                          {
                            OFFSET 0 -3.4 0
                            CHANNELS 6 Xposition Yposition Zposition Zrotation Xrotation Yrotation
                            End Site
                            {
                              OFFSET 0 -2.6 0
                            }
                          }
                        }
                      }
                    }
                    JOINT LeftHandPinky
                    {
                      OFFSET -0.75 -1.75 -1.85
                      CHANNELS 6 Xposition Yposition Zposition Zrotation Xrotation Yrotation
                      JOINT LeftHandPinky1
                      {
                        OFFSET 0 -7.15 -1
                        CHANNELS 6 Xposition Yposition Zposition Zrotation Xrotation Yrotation
                        JOINT LeftHandPinky2
                        {
                          OFFSET 0 -3 0
                          CHANNELS 6 Xposition Yposition Zposition Zrotation Xrotation Yrotation
                          JOINT LeftHandPinky3
                          {
                            OFFSET 0 -2.35 0
                            CHANNELS 6 Xposition Yposition Zposition Zrotation Xrotation Yrotation
                            End Site
                            {
                              OFFSET 0 -2.1 0
                            }
                          }
                        }
                      }
                    }
                  }
                }
              }
            }
          }
          JOINT RightShoulder
          {
            OFFSET -5 17 0
            CHANNELS 6 Xposition Yposition Zposition Zrotation Xrotation Yrotation
            JOINT RightShoulder2
            {
              OFFSET -6.45 0 0
              CHANNELS 6 Xposition Yposition Zposition Zrotation Xrotation Yrotation
              JOINT RightArm
              {
                OFFSET -6.45 0 0
                CHANNELS 6 Xposition Yposition Zposition Zrotation Xrotation Yrotation
                JOINT RightForeArm
                {
                  OFFSET 0 -32.4 -2
                  CHANNELS 6 Xposition Yposition Zposition Zrotation Xrotation Yrotation
                  JOINT RightHand
                  {
                    OFFSET 0 -25.65 2
                    CHANNELS 6 Xposition Yposition Zposition Zrotation Xrotation Yrotation
                    JOINT RightHandThumb1
                    {
                      OFFSET 0.5 -1.5 2.65
                      CHANNELS 6 Xposition Yposition Zposition Zrotation Xrotation Yrotation
                      JOINT RightHandThumb2
                      {
                        OFFSET 0 -3.8 3.7
                        CHANNELS 6 Xposition Yposition Zposition Zrotation Xrotation Yrotation
                        JOINT RightHandThumb3
                        {
                          OFFSET 0 -3 2.7
                          CHANNELS 6 Xposition Yposition Zposition Zrotation Xrotation Yrotation
                          End Site
                          {
                            OFFSET 0 -2.3 1.8
                          }
                        }
                      }
                    }
                    JOINT RightHandIndex
                    {
                      OFFSET 0 -1.9 1.6
                      CHANNELS 6 Xposition Yposition Zposition Zrotation Xrotation Yrotation
                      JOINT RightHandIndex1
                      {
                        OFFSET 0 -8.3 1.9
                        CHANNELS 6 Xposition Yposition Zposition Zrotation Xrotation Yrotation
                        JOINT RightHandIndex2
                        {
                          OFFSET 0 -4.5 0
                          CHANNELS 6 Xposition Yposition Zposition Zrotation Xrotation Yrotation
                          JOINT RightHandIndex3
                          {
                            OFFSET 0 -3.4 0
                            CHANNELS 6 Xposition Yposition Zposition Zrotation Xrotation Yrotation
                            End Site
                            {
                              OFFSET 0 -2.6 0
                            }
                          }
                        }
                      }
                    }
                    JOINT RightHandMiddle
                    {
                      OFFSET 0.25 -2.2 0.4
                      CHANNELS 6 Xposition Yposition Zposition Zrotation Xrotation Yrotation
                      JOINT RightHandMiddle1
                      {
                        OFFSET 0 -8.3 1
                        CHANNELS 6 Xposition Yposition Zposition Zrotation Xrotation Yrotation
                        JOINT RightHandMiddle2
                        {
                          OFFSET 0 -4.65 0
                          CHANNELS 6 Xposition Yposition Zposition Zrotation Xrotation Yrotation
                          JOINT RightHandMiddle3
                          {
                            OFFSET 0 -3.3 0
                            CHANNELS 6 Xposition Yposition Zposition Zrotation Xrotation Yrotation
                            End Site
                            {
                              OFFSET 0 -2.7 0
                            }
                          }
                        }
                      }
                    }
                    JOINT RightHandRing
                    {
                      OFFSET 0.5 -2.15 -0.8
                      CHANNELS 6 Xposition Yposition Zposition Zrotation Xrotation Yrotation
                      JOINT RightHandRing1
                      {
                        OFFSET 0 -7.75 -0.2
                        CHANNELS 6 Xposition Yposition Zposition Zrotation Xrotation Yrotation
                        JOINT RightHandRing2
                        {
                          OFFSET 0 -3.8 0
                          CHANNELS 6 Xposition Yposition Zposition Zrotation Xrotation Yrotation
                          JOINT RightHandRing3
                          {
                            OFFSET 0 -3.4 0
                            CHANNELS 6 Xposition Yposition Zposition Zrotation Xrotation Yrotation
                            End Site
                            {
                              OFFSET 0 -2.6 0
                            }
                          }
                        }
                      }
                    }
                    JOINT RightHandPinky
                    {
                      OFFSET 0.75 -1.75 -1.85
                      CHANNELS 6 Xposition Yposition Zposition Zrotation Xrotation Yrotation
                      JOINT RightHandPinky1
                      {
                        OFFSET 0 -7.15 -1
                        CHANNELS 6 Xposition Yposition Zposition Zrotation Xrotation Yrotation
                        JOINT RightHandPinky2
                        {
                          OFFSET 0 -3 0
                          CHANNELS 6 Xposition Yposition Zposition Zrotation Xrotation Yrotation
                          JOINT RightHandPinky3
                          {
                            OFFSET 0 -2.35 0
                            CHANNELS 6 Xposition Yposition Zposition Zrotation Xrotation Yrotation
                            End Site
                            {
                              OFFSET 0 -2.1 0
                            }
                          }
                        }
                      }
                    }
                  }
                }
              }
            }
          }
        }
      }
    }
  }
  JOINT LeftUpLeg
  {
    OFFSET 8 0 0
    CHANNELS 6 Xposition Yposition Zposition Zrotation Xrotation Yrotation
    JOINT LeftLeg
    {
      OFFSET 0 -45 -1
      CHANNELS 6 Xposition Yposition Zposition Zrotation Xrotation Yrotation
      JOINT LeftFoot
      {
        OFFSET 0 -41 -2
        CHANNELS 6 Xposition Yposition Zposition Zrotation Xrotation Yrotation
        JOINT LeftToeBase
        {
          OFFSET 0 -7.5 12.5
          CHANNELS 6 Xposition Yposition Zposition Zrotation Xrotation Yrotation
          JOINT LeftFootToe
          {
            OFFSET 0 0 4
            CHANNELS 6 Xposition Yposition Zposition Zrotation Xrotation Yrotation
            End Site
            {
              OFFSET 0 0 0
            }
          }
        }
      }
    }
  }
  JOINT RightUpLeg
  {
    OFFSET -8 0 0
    CHANNELS 6 Xposition Yposition Zposition Zrotation Xrotation Yrotation
    JOINT RightLeg
    {
      OFFSET 0 -45 -1
      CHANNELS 6 Xposition Yposition Zposition Zrotation Xrotation Yrotation
      JOINT RightFoot
      {
        OFFSET 0 -41 -2
        CHANNELS 6 Xposition Yposition Zposition Zrotation Xrotation Yrotation
        JOINT RightToeBase
        {
          OFFSET 0 -7.5 12.5
          CHANNELS 6 Xposition Yposition Zposition Zrotation Xrotation Yrotation
          JOINT RightFootToe
          {
            OFFSET 0 0 4
            CHANNELS 6 Xposition Yposition Zposition Zrotation Xrotation Yrotation
            End Site
            {
              OFFSET 0 0 0
            }
          }
        }
      }
    }
  }
}
MOTION
Frames:	3
Frame Time:	0.0111111
-313.852 92.1521 1205.7 -0.952401 -0.203826 141.544 -5.68434e-14 8 0 0.0834727 16.6046 0.426645 5.68434e-14 8 2.27374e-13 -2.80409 5.38651 7.05407 5.68434e-14 8 2.27374e-13 -1.31674 2.74075 3.49571 0 8 -2.27374e-13 -1.31217 2.73202 3.48427 5.68434e-14 17 0 -0.742162 2.59958 -5.60433 5.68434e-14 10.8 0 -1.33217 6.16669 -13.0842 5 17 0 -11.7839 -8.10168 9.10507 6.45 -1.13687e-13 2.27374e-13 -0.156382 -1.21692 5.21875 6.45 0 0 17.59 9.37898 69.1713 2.27374e-13 -32.4 -2 -80.2059 0.863365 -116.279 0 -25.65 2 21.0022 7.35919 -20.6423 -0.5 -1.5 2.65 -33.6905 -59.5317 70.2534 1.13687e-13 -3.8 3.7 -0.0585977 10.2313 0.0598273 1.13687e-13 -3 2.7 -0.00666734 -0.419995 0.00533724 -1.7053e-13 -1.9 1.6 -1.59028e-14 -4.77083e-15 1.59028e-15 0 -8.3 1.9 -4.64742 -14.453 -0.544669 -1.13687e-13 -4.5 -5.68434e-14 -0.0466775 -0.00124463 0.00375269 1.13687e-13 -3.4 0 -0.0464538 -0.00122754 0.00373221 -0.25 -2.2 0.4 -1.59028e-14 -4.77083e-15 1.59028e-15 -5.68434e-14 -8.3 1 -21.1679 -17.7778 -1.5931 0 -4.65 0 -12.2804 -6.95746e-15 6.75868e-15 1.13687e-13 -3.3 5.68434e-14 6.54841 0.0994375 -0.179233 -0.5 -2.15 -0.8 -1.59028e-14 -4.77083e-15 1.59028e-15 0 -7.75 -0.2 -48.6593 4.81175 7.90846 1.13687e-13 -3.8 1.13687e-13 -1.77348 -0.0054744 0.00844246 0 -3.4 0 -73.4698 -0.0651245 -0.0717926 -0.75 -1.75 -1.85 -1.59028e-14 -4.77083e-15 1.59028e-15 1.13687e-13 -7.15 -1 -3.07482 14.6274 0.844444 0 -3 1.13687e-13 -16.6638 -3.18055e-15 1.90833e-14 0 -2.35 0 -90.0002 3.81667e-14 4.6118e-14 -5 17 0 -1.83651 -2.79313 7.26159 -6.45 0 0 -2.59072 0.970986 -3.46919 -6.45 0 0 -29.6269 -40.7168 58.4575 0 -32.4 -2 11.9145 -20.1276 -4.3003 0 -25.65 2 11.8669 34.0283 4.96312 0.5 -1.5 2.65 29.5184 14.3481 -2.3229 -1.13687e-13 -3.8 3.7 2.11629 -8.5485 -0.57917 -1.13687e-13 -3 2.7 0.259376 47.2054 -0.176873 0 -1.9 1.6 -3.18055e-15 -1.11319e-14 6.36111e-15 0 -8.3 1.9 1.52187 10.2456 -0.159941 0 -4.5 0 -1.59028e-14 -0.0034661 -0 0 -3.4 1.13687e-13 3.49861e-14 -1.59028e-15 -6.36111e-15 0.25 -2.2 0.4 -3.18055e-15 -1.11319e-14 6.36111e-15 0 -8.3 1 19.1033 9.49799 -2.46083 0 -4.65 -5.68434e-14 11.9292 -0.0118935 -0.00715617 0 -3.3 5.68434e-14 10.2398 -0.0129463 -0.00376141 0.5 -2.15 -0.8 -3.18055e-15 -1.11319e-14 6.36111e-15 -2.27374e-13 -7.75 -0.2 42.8785 6.59085 -5.10924 0 -3.8 5.68434e-14 8.34608 -0.0119186 0.0110433 0 -3.4 5.68434e-14 7.48185 0.00776294 0.00914114 0.75 -1.75 -1.85 -3.18055e-15 -1.11319e-14 6.36111e-15 0 -7.15 -1 56.043 0.226857 -3.97283 5.68434e-14 -3 -1.13687e-13 18.7508 0.00964955 -0.00889261 5.68434e-14 -2.35 0 15.0373 0.00882673 -0.00778032 8 2.84217e-14 0 0.940093 -14.8898 8.4796 -1.13687e-13 -45 -1 -0.161218 16.6845 1.44592 0 -41 -2 0.615038 -2.48792 3.09339 5.68434e-14 -7.5 12.5 -1.45594e-19 4.97447e-17 -6.36111e-15 1.13687e-13 -4.33681e-19 4 -3.22687 -0.973856 51.0229 -8 1.42109e-14 0 -20.9903 -11.2984 -37.0301 0 -45 -1 0.933214 32.1676 -4.02221 0 -41 -2 6.56279 -6.63274 -18.9242 -2.27374e-13 -7.5 12.5 -7.95139e-16 9.93923e-16 1.59028e-15 2.27374e-13 0 4 -0.396969 5.59213 54.0326 
-313.682 92.2643 1205.48 -0.861826 -0.271465 140.609 0 8 0 0.233483 16.4814 0.474238 1.13687e-13 8 2.27374e-13 -2.80147 5.34574 7.0795 5.68434e-14 8 0 -1.31612 2.72041 3.50878 0 8 0 -1.31156 2.71174 3.49732 5.68434e-14 17 0 -0.791073 2.62164 -5.41101 5.68434e-14 10.8 0 -1.45749 6.22247 -12.626 5 17 0 -11.9004 -8.22434 9.05431 6.45 0 0 -0.107424 -1.21685 5.22977 6.45 0 2.27374e-13 17.1939 10.1998 69.6462 2.27374e-13 -32.4 -2 -79.904 0.254748 -115.909 1.13687e-13 -25.65 2 20.9421 7.29403 -20.3105 -0.5 -1.5 2.65 -36.3488 -60.0983 67.5543 1.13687e-13 -3.8 3.7 -0.0309887 8.42556 0.0983022 0 -3 2.7 -0.00666734 -0.419995 0.00533724 -1.13687e-13 -1.9 1.6 -6.36111e-15 -3.18055e-15 -0 1.13687e-13 -8.3 1.9 -3.97378 -12.5592 -0.431675 0 -4.5 -1.13687e-13 -1.05189 -0.0340968 0.0936504 1.13687e-13 -3.4 0 -0.951873 -0.0334366 0.0836614 -0.25 -2.2 0.4 -6.36111e-15 -3.18055e-15 -0 -5.68434e-14 -8.3 1 -19.9806 -16.549 -1.27107 0 -4.65 -5.68434e-14 -12.2804 -1.31198e-14 -7.15625e-15 -1.13687e-13 -3.3 0 8.95334 0.0935055 -0.151403 -0.5 -2.15 -0.8 -6.36111e-15 -3.18055e-15 -0 5.68434e-14 -7.75 -0.2 -47.9241 5.5046 8.08084 1.13687e-13 -3.8 0 -1.77348 -0.0054744 0.00844246 0 -3.4 0 -75.3273 -0.0610351 -0.0717926 -0.75 -1.75 -1.85 -6.36111e-15 -3.18055e-15 -0 1.7053e-13 -7.15 -1 -3.39893 15.37 0.941328 5.68434e-14 -3 0 -16.6638 -1.59028e-15 -6.36111e-15 -1.13687e-13 -2.35 -1.13687e-13 -90.0002 5.40694e-14 1.90833e-14 -5 17 0 -1.89374 -2.70918 7.28668 -6.45 0 0 -2.59482 0.95197 -3.45076 -6.45 5.68434e-14 2.27374e-13 -29.9184 -40.8353 58.4367 0 -32.4 -2 12.1259 -20.7292 -4.60868 0 -25.65 2 12.5544 34.4171 4.83612 0.5 -1.5 2.65 29.4671 14.5653 -2.71069 1.13687e-13 -3.8 3.7 2.12235 -9.10693 -0.588835 -1.13687e-13 -3 2.7 0.268117 47.9054 -0.174863 0 -1.9 1.6 8.82781e-31 -7.95139e-15 6.36111e-15 2.27374e-13 -8.3 1.9 1.74036 10.9459 -0.193413 0 -4.5 -5.68434e-14 -2.54442e-14 -0.0034661 3.18055e-15 0 -3.4 5.68434e-14 3.49861e-14 1.11319e-14 -3.18055e-15 0.25 -2.2 0.4 8.82781e-31 -7.95139e-15 6.36111e-15 0 -8.3 1 19.8307 10.0704 -2.64268 0 -4.65 -5.68434e-14 12.7618 -0.0194248 0.00627876 0 -3.3 0 10.8565 -0.0129463 0.00722327 0.5 -2.15 -0.8 8.82781e-31 -7.95139e-15 6.36111e-15 0 -7.75 -0.2 43.6243 7.00371 -5.37709 1.13687e-13 -3.8 5.68434e-14 8.45635 -0.0119186 0.0110433 5.68434e-14 -3.4 1.13687e-13 7.5679 0.00776294 0.00914114 0.75 -1.75 -1.85 8.82781e-31 -7.95139e-15 6.36111e-15 0 -7.15 -1 56.7066 0.367721 -4.13349 1.13687e-13 -3 -1.7053e-13 17.91 0.00964955 -0.0208634 2.84217e-14 -2.35 -1.7053e-13 14.4784 0.00882673 -0.0153963 8 0 -2.27374e-13 1.16403 -14.3404 8.80802 -5.68434e-14 -45 -1 -0.158684 16.1334 1.51653 -1.13687e-13 -41 -2 0.510643 -2.47101 3.48529 1.7053e-13 -7.5 12.5 4.85314e-20 4.98903e-17 3.18055e-15 5.68434e-14 -1.73472e-18 4 -3.23612 -0.942851 51.0244 -8 0 0 -21.0286 -11.0988 -37.0687 0 -45 -1 0.924853 31.7302 -4.02658 2.27374e-13 -41 -2 5.99806 -6.48372 -20.3847 -2.27374e-13 -7.5 12.5 -1.59028e-15 -5.96354e-16 1.59028e-15 0 0 4 0.36832 5.79189 53.9579 
-313.515 92.3591 1205.28 -0.793202 -0.317335 139.696 0 8 0 0.363786 16.3469 0.525091 0 8 0 -2.80085 5.30932 7.12077 5.68434e-14 8 0 -1.31601 2.70243 3.52972 -5.68434e-14 8 0 -1.31145 2.69381 3.51817 5.68434e-14 17 -2.27374e-13 -0.833346 2.65272 -5.23495 0 10.8 0 -1.56501 6.29812 -12.209 5 17 -2.27374e-13 -11.9994 -8.31617 8.99294 6.45 5.68434e-14 0 -0.0630592 -1.20504 5.25698 6.45 5.68434e-14 2.27374e-13 16.8755 11.1102 69.9782 2.27374e-13 -32.4 -2 -79.6762 -0.331754 -115.607 0 -25.65 2 20.6802 7.23749 -19.7119 -0.5 -1.5 2.65 -39.312 -60.7216 64.5234 0 -3.8 3.7 -0.00732635 6.494 0.134085 0 -3 2.7 -0.00666734 -0.419995 0.00533724 -2.84217e-13 -1.9 1.6 -1.90833e-14 1.59028e-15 -1.59028e-15 0 -8.3 1.9 -3.34823 -10.4703 -0.339285 0 -4.5 0 -2.40606 -0.0780761 0.18559 0 -3.4 0 -2.13259 -0.0776185 0.160411 -0.25 -2.2 0.4 -1.90833e-14 1.59028e-15 -1.59028e-15 5.68434e-14 -8.3 1 -18.8283 -15.2209 -0.960632 0 -4.65 -5.68434e-14 -12.2804 -1.19271e-15 -4.77083e-15 1.13687e-13 -3.3 5.68434e-14 10.6794 0.0744748 -0.108886 -0.5 -2.15 -0.8 -1.90833e-14 1.59028e-15 -1.59028e-15 -5.68434e-14 -7.75 -0.2 -47.1812 6.18902 8.24255 0 -3.8 0 -1.77348 -0.0054744 0.00844246 1.13687e-13 -3.4 1.13687e-13 -77.1881 -0.0504608 -0.0717926 -0.75 -1.75 -1.85 -1.90833e-14 1.59028e-15 -1.59028e-15 1.13687e-13 -7.15 -1 -3.6753 15.9989 1.03037 1.7053e-13 -3 0 -16.6638 0 -0 -1.13687e-13 -2.35 0 -90.0002 4.13472e-14 -1.74931e-14 -5 17 0 -1.93032 -2.63731 7.29672 -6.45 0 0 -2.60895 0.942945 -3.42032 -6.45 0 0 -30.353 -40.9171 58.143 0 -32.4 -2 12.4341 -21.3682 -4.82106 0 -25.65 2 13.2855 34.7389 4.56204 0.5 -1.5 2.65 29.3853 14.857 -3.08955 0 -3.8 3.7 2.13231 -9.69352 -0.590954 -1.13687e-13 -3 2.7 0.27942 48.5133 -0.185954 -2.27374e-13 -1.9 1.6 3.18055e-15 -1.27222e-14 9.54166e-15 -2.27374e-13 -8.3 1.9 1.96819 11.612 -0.233377 0 -4.5 -5.68434e-14 -2.22643e-14 -0.0034661 -6.36111e-15 0 -3.4 1.13687e-13 2.8625e-14 -1.59028e-15 -0 0.25 -2.2 0.4 3.18055e-15 -1.27222e-14 9.54166e-15 0 -8.3 1 20.5861 10.6034 -2.83377 0 -4.65 -5.68434e-14 13.5976 -0.025535 0.0185348 -1.13687e-13 -3.3 0 11.4615 -0.014839 0.0169224 0.5 -2.15 -0.8 3.18055e-15 -1.27222e-14 9.54166e-15 0 -7.75 -0.2 44.3819 7.4019 -5.65592 0 -3.8 5.68434e-14 8.69094 -0.0119186 0.0176261 0 -3.4 0 7.74782 0.00776294 0.0148993 0.75 -1.75 -1.85 3.18055e-15 -1.27222e-14 9.54166e-15 0 -7.15 -1 57.4037 0.514057 -4.31023 1.13687e-13 -3 -5.68434e-14 17.1814 0.00964955 -0.0255111 2.84217e-14 -2.35 -1.13687e-13 13.9921 0.00882673 -0.0179492 8 1.42109e-14 -2.27374e-13 1.35261 -13.8323 9.08007 -1.13687e-13 -45 -1 -0.156832 15.653 1.59365 -5.68434e-14 -41 -2 0.398859 -2.47628 3.86048 0 -7.5 12.5 4.85314e-20 4.96962e-17 -0 1.13687e-13 0 4 -3.26135 -0.880688 51.0337 -8 0 0 -21.0173 -10.991 -37.072 0 -45 -1 0.917866 31.4105 -4.03191 -2.27374e-13 -41 -2 5.45605 -6.40416 -21.7104 -4.54747e-13 -7.5 12.5 0 0 -0 0 0 4 1.01423 6.00792 53.8658 
